<?xml version="1.0" encoding="utf-8"?>
<!-- Generator: Adobe Illustrator 19.2.0, SVG Export Plug-In . SVG Version: 6.00 Build 0)  -->
<svg version="1.1" id="Layer_1" xmlns="http://www.w3.org/2000/svg" xmlns:xlink="http://www.w3.org/1999/xlink" x="0px" y="0px"
	 viewBox="0 0 353.5 52.2" style="enable-background:new 0 0 353.5 52.2;" xml:space="preserve">
<style type="text/css">
	.st0{fill:#163458;}
</style>
<path class="st0" d="M26.1,0l23.5,51H41l-7.6-16.6H12.1L4.2,51H0L24,0H26.1z M13.5,31.1h18.4l-9.1-19.7L13.5,31.1z M64.8,1.1h8.4
	v46.6h25.1V51H64.8V1.1z M139.4,3.6c-3,0-5.8,0.5-8.3,1.6c-2.5,1.1-4.7,2.6-6.6,4.6c-1.8,2-3.3,4.4-4.3,7.2c-1,2.8-1.5,6-1.5,9.5
	s0.6,6.7,1.7,9.5c1.1,2.8,2.6,5.2,4.6,7.2c1.9,2,4.2,3.5,6.8,4.6c2.6,1.1,5.4,1.6,8.4,1.6c2.2,0,4.2-0.3,5.9-0.9
	c1.8-0.6,3.3-1.4,4.7-2.5V28.4h-9.4v-3h17.8v21.9c-1.5,0.8-2.9,1.5-4.4,2.1c-1.5,0.6-3.1,1.1-4.8,1.5c-1.7,0.4-3.6,0.7-5.7,0.9
	c-2.1,0.2-4.4,0.3-7,0.3c-2.7,0-5.4-0.3-7.9-0.9c-2.5-0.6-4.8-1.5-6.9-2.6c-2.1-1.1-4-2.5-5.7-4c-1.7-1.6-3.2-3.3-4.3-5.2
	c-1.2-1.9-2.1-4-2.8-6.1c-0.6-2.2-1-4.4-1-6.8c0-2.3,0.3-4.6,0.9-6.8c0.6-2.2,1.5-4.3,2.6-6.3c1.1-2,2.5-3.8,4.2-5.4
	c1.7-1.6,3.5-3,5.6-4.2s4.3-2.1,6.8-2.8c2.4-0.7,5.1-1,7.8-1c2.6,0,5.1,0.4,7.3,1.1c2.2,0.7,4.3,1.7,6.1,2.8
	c1.8,1.2,3.5,2.5,4.9,4.1c1.4,1.6,2.7,3.2,3.7,4.8l-3.6,2.4c-2.1-4-4.4-7-7-8.9C145.7,4.5,142.7,3.6,139.4,3.6z M180.6,1.1h17.2
	c3,0,5.6,0.3,7.9,1c2.3,0.6,4.1,1.5,5.6,2.7c1.5,1.2,2.6,2.5,3.4,4.1c0.8,1.6,1.1,3.3,1.1,5.2c0,1.6-0.3,3-0.9,4.3
	c-0.6,1.3-1.4,2.6-2.5,3.7c-1.1,1.1-2.4,2-3.9,2.8c-1.5,0.8-3.2,1.4-5,1.8L221.9,51h-9.7l-17.3-23.4H189V51h-8.4V1.1z M189,25.1h4.8
	c1.9,0,3.6-0.3,5.2-0.8c1.6-0.5,3-1.2,4.1-2.1c1.2-0.9,2.1-2,2.7-3.3c0.7-1.3,1-2.8,1-4.4c0-1.5-0.3-2.8-0.8-4.1
	c-0.5-1.3-1.3-2.3-2.2-3.2c-0.9-0.9-2-1.6-3.3-2.1c-1.3-0.5-2.7-0.8-4.2-0.8H189V25.1z M259,0l23.5,51H274l-7.6-16.6H245L237.1,51
	h-4.2l24-51H259z M246.5,31.1h18.4l-9.1-19.7L246.5,31.1z M297.7,1.1h8.6l19.4,38.3h0.4l19-38.3h8.4V51h-8.4V10.2h-0.3L324.4,51
	h-1.7L302,10.5h-0.6V51h-3.7V1.1z"/>
</svg>
